<svg width="334" height="529" viewBox="0 0 334 529" fill="none" xmlns="http://www.w3.org/2000/svg">
<path d="M59.626 178.752L51.748 178.914L47.752 178.986C46.42 178.986 45.076 178.986 43.738 179.016H43.468V178.746V172.038V171.732H43.774L51.718 171.768C54.364 171.768 57.01 171.834 59.662 171.864H59.8V172.026C59.8 173.16 59.746 174.294 59.722 175.416L59.626 178.752ZM59.626 178.752L59.536 175.356C59.536 174.24 59.47 173.136 59.458 172.038L59.626 172.2C56.974 172.23 54.328 172.296 51.682 172.296L43.738 172.332L44.038 172.038L44.002 178.746L43.738 178.482C45.046 178.482 46.348 178.482 47.662 178.482L51.61 178.554L59.626 178.752Z" fill="#EBEBEB"/>
<path d="M50.758 187.2L42.886 187.368L38.89 187.44C37.552 187.44 36.214 187.44 34.87 187.47H34.6V187.2V180.504V180.198H34.9L42.844 180.234C45.496 180.234 48.142 180.3 50.788 180.33H50.956V180.492C50.956 181.626 50.902 182.76 50.878 183.882L50.758 187.2ZM50.758 187.2L50.674 183.81C50.674 182.694 50.608 181.59 50.596 180.492L50.758 180.654C48.112 180.684 45.466 180.75 42.814 180.75L34.87 180.786L35.17 180.492L35.14 187.2L34.87 186.936C36.184 186.936 37.486 186.936 38.8 186.966L42.748 187.038L50.758 187.2Z" fill="#EBEBEB"/>
<path d="M68.896 187.2L61 187.38L57.004 187.452C55.666 187.452 54.328 187.452 52.984 187.482H52.72V187.2L52.684 180.492V180.186H52.984L60.928 180.222C63.58 180.222 66.226 180.288 68.872 180.318H69.04V180.48C69.04 181.614 68.986 182.748 68.962 183.87L68.896 187.2ZM68.896 187.2L68.812 183.81C68.812 182.694 68.746 181.59 68.734 180.492L68.896 180.654C66.25 180.684 63.604 180.75 60.952 180.75L53.008 180.786L53.308 180.492L53.278 187.2L53.008 186.936C54.322 186.936 55.624 186.936 56.938 186.966L60.886 187.038L68.896 187.2Z" fill="#EBEBEB"/>
<path d="M206.8 119.856L198.922 120.024L194.926 120.09C193.588 120.09 192.25 120.09 190.912 120.126H190.6V119.856V113.142V112.842H190.906L198.85 112.884C201.496 112.884 204.142 112.95 206.794 112.98H206.956V113.142C206.956 114.282 206.902 115.416 206.878 116.538L206.8 119.856ZM206.8 119.856L206.71 116.466C206.71 115.35 206.644 114.24 206.632 113.142L206.8 113.31C204.148 113.34 201.502 113.406 198.856 113.406L190.912 113.442L191.212 113.142L191.176 119.856L190.912 119.592C192.22 119.592 193.522 119.592 194.836 119.622L198.784 119.688L206.8 119.856Z" fill="#EBEBEB"/>
<path d="M273.262 187.2L265.39 187.368L261.394 187.44C260.056 187.44 258.712 187.44 257.374 187.47H257.11V187.2L257.074 180.492V180.186H257.374L265.318 180.222C267.97 180.222 270.616 180.288 273.262 180.318H273.43V180.48C273.43 181.614 273.382 182.748 273.352 183.87L273.262 187.2ZM273.262 187.2L273.178 183.81C273.148 182.694 273.112 181.59 273.1 180.492L273.262 180.654C270.616 180.684 267.97 180.75 265.318 180.75L257.374 180.786L257.674 180.492L257.644 187.2L257.374 186.936C258.682 186.936 259.99 186.936 261.304 186.966L265.252 187.038L273.262 187.2Z" fill="#EBEBEB"/>
<path d="M242.026 273.02L234.148 273.182L230.152 273.254C228.82 273.254 227.476 273.254 226.138 273.284H225.868V273.014V266.306V266H226.174L234.118 266.036C236.764 266.036 239.41 266.102 242.062 266.132H242.2V266.294C242.2 267.428 242.146 268.562 242.122 269.684L242.026 273.02ZM242.026 273.02L241.936 269.624C241.936 268.508 241.87 267.404 241.858 266.306L242.026 266.468C239.374 266.498 236.728 266.564 234.082 266.564L226.138 266.6L226.438 266.306L226.402 273.014L226.138 272.75C227.446 272.75 228.748 272.75 230.062 272.75L234.01 272.822L242.026 273.02Z" fill="#EBEBEB"/>
<path d="M233.158 281.468L225.286 281.636L221.29 281.708C219.952 281.708 218.614 281.708 217.27 281.738H217V281.468V274.772V274.466H217.3L225.244 274.502C227.896 274.502 230.542 274.568 233.188 274.598H233.356V274.76C233.356 275.894 233.302 277.028 233.278 278.15L233.158 281.468ZM233.158 281.468L233.074 278.078C233.074 276.962 233.008 275.858 232.996 274.76L233.158 274.922C230.512 274.952 227.866 275.018 225.214 275.018L217.27 275.054L217.57 274.76L217.54 281.468L217.27 281.204C218.584 281.204 219.886 281.204 221.2 281.234L225.148 281.306L233.158 281.468Z" fill="#EBEBEB"/>
<path d="M251.296 281.468L243.4 281.648L239.404 281.72C238.066 281.72 236.728 281.72 235.384 281.75H235.12V281.468L235.084 274.76V274.454H235.384L243.328 274.49C245.98 274.49 248.626 274.556 251.272 274.586H251.44V274.748C251.44 275.882 251.386 277.016 251.362 278.138L251.296 281.468ZM251.296 281.468L251.212 278.078C251.212 276.962 251.146 275.858 251.134 274.76L251.296 274.922C248.65 274.952 246.004 275.018 243.352 275.018L235.408 275.054L235.708 274.76L235.678 281.468L235.408 281.204C236.722 281.204 238.024 281.204 239.338 281.234L243.286 281.306L251.296 281.468Z" fill="#EBEBEB"/>
<path d="M35.026 331.02L27.148 331.182L23.152 331.254C21.82 331.254 20.476 331.254 19.138 331.284H18.868V331.014V324.306V324H19.174L27.118 324.036C29.764 324.036 32.41 324.102 35.062 324.132H35.2V324.294C35.2 325.428 35.146 326.562 35.122 327.684L35.026 331.02ZM35.026 331.02L34.936 327.624C34.936 326.508 34.87 325.404 34.858 324.306L35.026 324.468C32.374 324.498 29.728 324.564 27.082 324.564L19.138 324.6L19.438 324.306L19.402 331.014L19.138 330.75C20.446 330.75 21.748 330.75 23.062 330.75L27.01 330.822L35.026 331.02Z" fill="#EBEBEB"/>
<path d="M26.158 339.468L18.286 339.636L14.29 339.708C12.952 339.708 11.614 339.708 10.27 339.738H10V339.468V332.772V332.466H10.3L18.244 332.502C20.896 332.502 23.542 332.568 26.188 332.598H26.356V332.76C26.356 333.894 26.302 335.028 26.278 336.15L26.158 339.468ZM26.158 339.468L26.074 336.078C26.074 334.962 26.008 333.858 25.996 332.76L26.158 332.922C23.512 332.952 20.866 333.018 18.214 333.018L10.27 333.054L10.57 332.76L10.54 339.468L10.27 339.204C11.584 339.204 12.886 339.204 14.2 339.234L18.148 339.306L26.158 339.468Z" fill="#EBEBEB"/>
<path d="M44.296 339.468L36.4 339.648L32.404 339.72C31.066 339.72 29.728 339.72 28.384 339.75H28.12V339.468L28.084 332.76V332.454H28.384L36.328 332.49C38.98 332.49 41.626 332.556 44.272 332.586H44.44V332.748C44.44 333.882 44.386 335.016 44.362 336.138L44.296 339.468ZM44.296 339.468L44.212 336.078C44.212 334.962 44.146 333.858 44.134 332.76L44.296 332.922C41.65 332.952 39.004 333.018 36.352 333.018L28.408 333.054L28.708 332.76L28.678 339.468L28.408 339.204C29.722 339.204 31.024 339.204 32.338 339.234L36.286 339.306L44.296 339.468Z" fill="#EBEBEB"/>
<path d="M248.662 339.468L240.79 339.636L236.794 339.708C235.456 339.708 234.112 339.708 232.774 339.738H232.51V339.468L232.474 332.76V332.454H232.774L240.718 332.49C243.37 332.49 246.016 332.556 248.662 332.586H248.83V332.748C248.83 333.882 248.782 335.016 248.752 336.138L248.662 339.468ZM248.662 339.468L248.578 336.078C248.548 334.962 248.512 333.858 248.5 332.76L248.662 332.922C246.016 332.952 243.37 333.018 240.718 333.018L232.774 333.054L233.074 332.76L233.044 339.468L232.774 339.204C234.082 339.204 235.39 339.204 236.704 339.234L240.652 339.306L248.662 339.468Z" fill="#EBEBEB"/>
<path d="M25.026 142.02L17.148 142.182L13.152 142.254C11.82 142.254 10.476 142.254 9.13798 142.284H8.86798V142.014V135.306V135H9.17398L17.118 135.036C19.764 135.036 22.41 135.102 25.062 135.132H25.2V135.294C25.2 136.428 25.146 137.562 25.122 138.684L25.026 142.02ZM25.026 142.02L24.936 138.624C24.936 137.508 24.87 136.404 24.858 135.306L25.026 135.468C22.374 135.498 19.728 135.564 17.082 135.564L9.13798 135.6L9.43798 135.306L9.40198 142.014L9.13798 141.75C10.446 141.75 11.748 141.75 13.062 141.75L17.01 141.822L25.026 142.02Z" fill="#EBEBEB"/>
<path d="M16.158 150.468L8.286 150.636L4.29 150.708C2.952 150.708 1.614 150.708 0.27 150.738H0V150.468V143.772V143.466H0.3L8.244 143.502C10.896 143.502 13.542 143.568 16.188 143.598H16.356V143.76C16.356 144.894 16.302 146.028 16.278 147.15L16.158 150.468ZM16.158 150.468L16.074 147.078C16.074 145.962 16.008 144.858 15.996 143.76L16.158 143.922C13.512 143.952 10.866 144.018 8.214 144.018L0.27 144.054L0.57 143.76L0.540001 150.468L0.27 150.204C1.584 150.204 2.886 150.204 4.2 150.234L8.148 150.306L16.158 150.468Z" fill="#EBEBEB"/>
<path d="M34.296 150.468L26.4 150.648L22.404 150.72C21.066 150.72 19.728 150.72 18.384 150.75H18.12V150.468L18.084 143.76V143.454H18.384L26.328 143.49C28.98 143.49 31.626 143.556 34.272 143.586H34.44V143.748C34.44 144.882 34.386 146.016 34.362 147.138L34.296 150.468ZM34.296 150.468L34.212 147.078C34.212 145.962 34.146 144.858 34.134 143.76L34.296 143.922C31.65 143.952 29.004 144.018 26.352 144.018L18.408 144.054L18.708 143.76L18.678 150.468L18.408 150.204C19.722 150.204 21.024 150.204 22.338 150.234L26.286 150.306L34.296 150.468Z" fill="#EBEBEB"/>
<path d="M238.662 150.468L230.79 150.636L226.794 150.708C225.456 150.708 224.112 150.708 222.774 150.738H222.51V150.468L222.474 143.76V143.454H222.774L230.718 143.49C233.37 143.49 236.016 143.556 238.662 143.586H238.83V143.748C238.83 144.882 238.782 146.016 238.752 147.138L238.662 150.468ZM238.662 150.468L238.578 147.078C238.548 145.962 238.512 144.858 238.5 143.76L238.662 143.922C236.016 143.952 233.37 144.018 230.718 144.018L222.774 144.054L223.074 143.76L223.044 150.468L222.774 150.204C224.082 150.204 225.39 150.204 226.704 150.234L230.652 150.306L238.662 150.468Z" fill="#EBEBEB"/>
<path d="M103.026 241.02L95.148 241.182L91.152 241.254C89.82 241.254 88.476 241.254 87.138 241.284H86.868V241.014V234.306V234H87.174L95.118 234.036C97.764 234.036 100.41 234.102 103.062 234.132H103.2V234.294C103.2 235.428 103.146 236.562 103.122 237.684L103.026 241.02ZM103.026 241.02L102.936 237.624C102.936 236.508 102.87 235.404 102.858 234.306L103.026 234.468C100.374 234.498 97.728 234.564 95.082 234.564L87.138 234.6L87.438 234.306L87.402 241.014L87.138 240.75C88.446 240.75 89.748 240.75 91.062 240.75L95.01 240.822L103.026 241.02Z" fill="#EBEBEB"/>
<path d="M94.158 249.468L86.286 249.636L82.29 249.708C80.952 249.708 79.614 249.708 78.27 249.738H78V249.468V242.772V242.466H78.3L86.244 242.502C88.896 242.502 91.542 242.568 94.188 242.598H94.356V242.76C94.356 243.894 94.302 245.028 94.278 246.15L94.158 249.468ZM94.158 249.468L94.074 246.078C94.074 244.962 94.008 243.858 93.996 242.76L94.158 242.922C91.512 242.952 88.866 243.018 86.214 243.018L78.27 243.054L78.57 242.76L78.54 249.468L78.27 249.204C79.584 249.204 80.886 249.204 82.2 249.234L86.148 249.306L94.158 249.468Z" fill="#EBEBEB"/>
<path d="M112.296 249.468L104.4 249.648L100.404 249.72C99.066 249.72 97.728 249.72 96.384 249.75H96.12V249.468L96.084 242.76V242.454H96.384L104.328 242.49C106.98 242.49 109.626 242.556 112.272 242.586H112.44V242.748C112.44 243.882 112.386 245.016 112.362 246.138L112.296 249.468ZM112.296 249.468L112.212 246.078C112.212 244.962 112.146 243.858 112.134 242.76L112.296 242.922C109.65 242.952 107.004 243.018 104.352 243.018L96.408 243.054L96.708 242.76L96.678 249.468L96.408 249.204C97.722 249.204 99.024 249.204 100.338 249.234L104.286 249.306L112.296 249.468Z" fill="#EBEBEB"/>
<path d="M316.662 249.468L308.79 249.636L304.794 249.708C303.456 249.708 302.112 249.708 300.774 249.738H300.51V249.468L300.474 242.76V242.454H300.774L308.718 242.49C311.37 242.49 314.016 242.556 316.662 242.586H316.83V242.748C316.83 243.882 316.782 245.016 316.752 246.138L316.662 249.468ZM316.662 249.468L316.578 246.078C316.548 244.962 316.512 243.858 316.5 242.76L316.662 242.922C314.016 242.952 311.37 243.018 308.718 243.018L300.774 243.054L301.074 242.76L301.044 249.468L300.774 249.204C302.082 249.204 303.39 249.204 304.704 249.234L308.652 249.306L316.662 249.468Z" fill="#EBEBEB"/>
<path d="M29.026 448.02L21.148 448.182L17.152 448.254C15.82 448.254 14.476 448.254 13.138 448.284H12.868V448.014V441.306V441H13.174L21.118 441.036C23.764 441.036 26.41 441.102 29.062 441.132H29.2V441.294C29.2 442.428 29.146 443.562 29.122 444.684L29.026 448.02ZM29.026 448.02L28.936 444.624C28.936 443.508 28.87 442.404 28.858 441.306L29.026 441.468C26.374 441.498 23.728 441.564 21.082 441.564L13.138 441.6L13.438 441.306L13.402 448.014L13.138 447.75C14.446 447.75 15.748 447.75 17.062 447.75L21.01 447.822L29.026 448.02Z" fill="#EBEBEB"/>
<path d="M20.158 456.468L12.286 456.636L8.29 456.708C6.952 456.708 5.614 456.708 4.27 456.738H4V456.468V449.772V449.466H4.3L12.244 449.502C14.896 449.502 17.542 449.568 20.188 449.598H20.356V449.76C20.356 450.894 20.302 452.028 20.278 453.15L20.158 456.468ZM20.158 456.468L20.074 453.078C20.074 451.962 20.008 450.858 19.996 449.76L20.158 449.922C17.512 449.952 14.866 450.018 12.214 450.018L4.27 450.054L4.57 449.76L4.54 456.468L4.27 456.204C5.584 456.204 6.886 456.204 8.2 456.234L12.148 456.306L20.158 456.468Z" fill="#EBEBEB"/>
<path d="M38.296 456.468L30.4 456.648L26.404 456.72C25.066 456.72 23.728 456.72 22.384 456.75H22.12V456.468L22.084 449.76V449.454H22.384L30.328 449.49C32.98 449.49 35.626 449.556 38.272 449.586H38.44V449.748C38.44 450.882 38.386 452.016 38.362 453.138L38.296 456.468ZM38.296 456.468L38.212 453.078C38.212 451.962 38.146 450.858 38.134 449.76L38.296 449.922C35.65 449.952 33.004 450.018 30.352 450.018L22.408 450.054L22.708 449.76L22.678 456.468L22.408 456.204C23.722 456.204 25.024 456.204 26.338 456.234L30.286 456.306L38.296 456.468Z" fill="#EBEBEB"/>
<path d="M242.662 456.468L234.79 456.636L230.794 456.708C229.456 456.708 228.112 456.708 226.774 456.738H226.51V456.468L226.474 449.76V449.454H226.774L234.718 449.49C237.37 449.49 240.016 449.556 242.662 449.586H242.83V449.748C242.83 450.882 242.782 452.016 242.752 453.138L242.662 456.468ZM242.662 456.468L242.578 453.078C242.548 451.962 242.512 450.858 242.5 449.76L242.662 449.922C240.016 449.952 237.37 450.018 234.718 450.018L226.774 450.054L227.074 449.76L227.044 456.468L226.774 456.204C228.082 456.204 229.39 456.204 230.704 456.234L234.652 456.306L242.662 456.468Z" fill="#EBEBEB"/>
<path d="M313.026 445.02L305.148 445.182L301.152 445.254C299.82 445.254 298.476 445.254 297.138 445.284H296.868V445.014V438.306V438H297.174L305.118 438.036C307.764 438.036 310.41 438.102 313.062 438.132H313.2V438.294C313.2 439.428 313.146 440.562 313.122 441.684L313.026 445.02ZM313.026 445.02L312.936 441.624C312.936 440.508 312.87 439.404 312.858 438.306L313.026 438.468C310.374 438.498 307.728 438.564 305.082 438.564L297.138 438.6L297.438 438.306L297.402 445.014L297.138 444.75C298.446 444.75 299.748 444.75 301.062 444.75L305.01 444.822L313.026 445.02Z" fill="#EBEBEB"/>
<path d="M304.158 453.468L296.286 453.636L292.29 453.708C290.952 453.708 289.614 453.708 288.27 453.738H288V453.468V446.772V446.466H288.3L296.244 446.502C298.896 446.502 301.542 446.568 304.188 446.598H304.356V446.76C304.356 447.894 304.302 449.028 304.278 450.15L304.158 453.468ZM304.158 453.468L304.074 450.078C304.074 448.962 304.008 447.858 303.996 446.76L304.158 446.922C301.512 446.952 298.866 447.018 296.214 447.018L288.27 447.054L288.57 446.76L288.54 453.468L288.27 453.204C289.584 453.204 290.886 453.204 292.2 453.234L296.148 453.306L304.158 453.468Z" fill="#EBEBEB"/>
<path d="M322.296 453.468L314.4 453.648L310.404 453.72C309.066 453.72 307.728 453.72 306.384 453.75H306.12V453.468L306.084 446.76V446.454H306.384L314.328 446.49C316.98 446.49 319.626 446.556 322.272 446.586H322.44V446.748C322.44 447.882 322.386 449.016 322.362 450.138L322.296 453.468ZM322.296 453.468L322.212 450.078C322.212 448.962 322.146 447.858 322.134 446.76L322.296 446.922C319.65 446.952 317.004 447.018 314.352 447.018L306.408 447.054L306.708 446.76L306.678 453.468L306.408 453.204C307.722 453.204 309.024 453.204 310.338 453.234L314.286 453.306L322.296 453.468Z" fill="#EBEBEB"/>
<path d="M264.4 26.52L256.528 26.688L252.526 26.754C251.194 26.754 249.85 26.754 248.512 26.79H248.248V26.52L248.2 19.8V19.5H248.5L256.444 19.536C259.09 19.536 261.742 19.608 264.388 19.638H264.556V19.8C264.556 20.94 264.508 22.074 264.478 23.19L264.4 26.52ZM264.4 26.52L264.316 23.13C264.286 22.008 264.25 20.904 264.238 19.806L264.4 19.968C261.754 19.968 259.102 20.064 256.456 20.07L248.512 20.106L248.812 19.806V26.52L248.542 26.25C249.85 26.25 251.158 26.25 252.472 26.286L256.414 26.352L264.4 26.52Z" fill="#EBEBEB"/>
<path d="M273.262 34.986L265.39 35.154L261.4 35.22C260.062 35.22 258.718 35.22 257.38 35.256H257.116V34.986L257.08 28.272V27.972H257.38L265.324 28.008C267.976 28.008 270.622 28.08 273.268 28.11H273.436V28.272C273.436 29.412 273.388 30.546 273.358 31.662L273.262 34.986ZM273.262 34.986L273.178 31.596C273.148 30.474 273.112 29.37 273.1 28.272L273.262 28.434C270.616 28.434 267.97 28.53 265.318 28.536L257.374 28.572L257.674 28.272L257.644 34.986L257.374 34.716C258.682 34.716 259.99 34.716 261.304 34.752L265.252 34.818L273.262 34.986Z" fill="#EBEBEB"/>
<path d="M101.158 65.014L93.28 65.182L89.284 65.248C87.952 65.248 86.608 65.248 85.27 65.284H85V65.014V58.3V58H85.306L93.25 58.036C95.896 58.036 98.542 58.108 101.194 58.138H101.332V58.294C101.332 59.434 101.278 60.568 101.254 61.684L101.158 65.014ZM101.158 65.014L101.068 61.624C101.068 60.502 101.002 59.398 100.99 58.3L101.158 58.462C98.506 58.462 95.86 58.558 93.214 58.564L85.27 58.6L85.57 58.3L85.534 65.014L85.27 64.744C86.578 64.744 87.88 64.744 89.194 64.78L93.142 64.846L101.158 65.014Z" fill="#EBEBEB"/>
<path d="M211.158 295.014L203.28 295.182L199.284 295.248C197.952 295.248 196.608 295.248 195.27 295.284H195V295.014V288.3V288H195.306L203.25 288.036C205.896 288.036 208.542 288.108 211.194 288.138H211.332V288.294C211.332 289.434 211.278 290.568 211.254 291.684L211.158 295.014ZM211.158 295.014L211.068 291.624C211.068 290.502 211.002 289.398 210.99 288.3L211.158 288.462C208.506 288.462 205.86 288.558 203.214 288.564L195.27 288.6L195.57 288.3L195.534 295.014L195.27 294.744C196.578 294.744 197.88 294.744 199.194 294.78L203.142 294.846L211.158 295.014Z" fill="#EBEBEB"/>
<path d="M155.552 0H155.036V60.588H155.552V0Z" fill="#C7C7C7"/>
<path d="M176.582 81.114L174.872 84.876H135.71L134 81.114L150.674 69.57H159.908L176.582 81.114Z" fill="#EBEBEB"/>
<path d="M161.066 58.452L159.908 69.57H150.674L149.516 58.452H161.066Z" fill="#DBDBDB"/>
<path d="M176.582 81.114L174.866 84.876H135.71L134 81.114H176.582Z" fill="#DBDBDB"/>
<path d="M201.266 0H200.75V48.444H201.266V0Z" fill="#C7C7C7"/>
<path d="M222.296 68.97L220.58 72.732H181.424L179.714 68.97L196.388 57.432H205.622L222.296 68.97Z" fill="#EBEBEB"/>
<path d="M206.78 46.314L205.622 57.432H196.388L195.23 46.314H206.78Z" fill="#DBDBDB"/>
<path d="M222.29 68.97L220.58 72.732H181.418L179.714 68.97H222.29Z" fill="#DBDBDB"/>
<path d="M8 464.762L44.4693 464.595L80.9385 464.532L153.87 464.42L226.802 464.532L263.271 464.595L299.74 464.762L263.271 464.937L226.802 465L153.87 465.112L80.9385 465L44.4693 464.937L8 464.762Z" fill="#263238"/>
<path d="M153.87 528.475C229.456 528.475 290.731 519.86 290.731 509.233C290.731 498.606 229.456 489.992 153.87 489.992C78.2837 489.992 17.0089 498.606 17.0089 509.233C17.0089 519.86 78.2837 528.475 153.87 528.475Z" fill="#EBEBEB"/>
<path d="M56.1081 502.358L185.506 502.91C216.981 478.22 220.206 441.632 197.767 419.452C184.191 406.037 166.95 408.744 150.527 406.61H150.485C144.763 405.869 139.154 404.512 133.824 401.714C116.925 392.796 107.392 371.757 93.1719 354.061C91.3953 351.843 89.5417 349.682 87.5763 347.605C75.8815 335.12 52.6038 334.714 40.4264 352.27C9.4968 396.881 23.6676 463.28 56.1081 502.358Z" fill="#71CC75"/>
<path opacity="0.2" d="M56.1081 502.358L185.506 502.91C216.981 478.22 220.206 441.632 197.767 419.452C184.191 406.037 166.95 408.744 150.527 406.61H150.485C144.763 405.869 139.154 404.512 133.824 401.714C116.925 392.796 107.392 371.757 93.1719 354.061C91.3953 351.843 89.5417 349.682 87.5763 347.605C75.8815 335.12 52.6038 334.714 40.4264 352.27C9.4968 396.881 23.6676 463.28 56.1081 502.358Z" fill="black"/>
<path opacity="0.1" d="M53.2334 400.28C56.6467 453.361 117.925 473.184 156.22 457.278C189.507 443.45 178.603 411.891 150.513 406.61H150.471C144.749 405.869 139.14 404.512 133.81 401.714C116.911 392.796 107.378 371.757 93.1579 354.061C71.9646 343.058 50.7503 361.412 53.2334 400.28Z" fill="black"/>
<path d="M163.711 510.919C161.886 510.143 121.514 474.331 120.835 471.988C120.576 471.106 125.444 464.923 131.551 457.614C132.866 456.04 134.237 454.418 135.635 452.781C144.728 442.128 154.597 431.042 154.597 431.042L181.673 454.921L161.963 476.003L157.64 480.64C157.64 480.64 166.964 501.26 167.432 503.911C167.901 506.561 165.544 511.702 163.711 510.919Z" fill="#EB9481"/>
<path d="M163.711 510.919C161.886 510.143 121.514 474.331 120.835 471.988C120.52 470.911 127.781 462.007 135.635 452.781L161.963 476.003L157.64 480.64C157.64 480.64 166.964 501.26 167.432 503.911C167.901 506.561 165.544 511.702 163.711 510.919Z" fill="white"/>
<path d="M163.711 510.919C161.886 510.143 121.514 474.331 120.835 471.988C120.576 471.106 125.444 464.923 131.551 457.614L157.64 480.64C157.64 480.64 166.964 501.26 167.432 503.911C167.901 506.561 165.544 511.702 163.711 510.919Z" fill="#71CC75"/>
<path d="M164.565 508.793C157.948 502.624 130.662 478.367 123.654 472.771C123.591 472.722 123.563 472.771 123.612 472.813C130.04 479.073 157.521 503.106 164.467 508.905C164.614 509.024 164.705 508.926 164.565 508.793Z" fill="#263238"/>
<path d="M166.124 500.147C165.39 499.46 164.521 498.933 163.572 498.598C162.624 498.263 161.616 498.129 160.613 498.203C158.805 498.325 157.114 499.139 155.891 500.476C155.891 500.518 155.933 500.588 155.975 500.553C157.393 499.416 159.142 498.771 160.958 498.713C162.774 498.655 164.56 499.188 166.047 500.231C166.11 500.273 166.18 500.224 166.124 500.147Z" fill="#263238"/>
<path d="M159.669 483.633C156.997 481.192 153.01 479.36 149.359 480.087C149.219 480.087 149.261 480.311 149.359 480.346C152.828 481.203 156.195 482.43 159.403 484.004C159.452 484.039 159.513 484.054 159.573 484.044C159.632 484.034 159.686 484.001 159.721 483.952C159.756 483.903 159.771 483.841 159.761 483.782C159.751 483.722 159.718 483.669 159.669 483.633Z" fill="#263238"/>
<path d="M161.039 486.305C158.361 483.864 154.374 482.032 150.73 482.752C150.583 482.752 150.625 482.983 150.73 483.011C154.199 483.871 157.566 485.1 160.774 486.676C160.823 486.711 160.884 486.726 160.944 486.716C161.003 486.706 161.057 486.673 161.092 486.624C161.127 486.575 161.141 486.513 161.132 486.454C161.122 486.394 161.089 486.341 161.039 486.305Z" fill="#263238"/>
<path d="M162.403 488.97C159.731 486.529 155.745 484.704 152.093 485.424C151.954 485.424 151.996 485.655 152.093 485.683C155.563 486.543 158.93 487.771 162.138 489.348C162.162 489.365 162.19 489.378 162.22 489.385C162.25 489.391 162.28 489.392 162.31 489.387C162.34 489.381 162.368 489.37 162.394 489.354C162.42 489.338 162.442 489.317 162.459 489.292C162.477 489.267 162.489 489.239 162.496 489.21C162.502 489.18 162.503 489.149 162.498 489.12C162.493 489.09 162.482 489.061 162.466 489.036C162.449 489.01 162.428 488.988 162.403 488.97Z" fill="#263238"/>
<path d="M163.774 491.642C161.095 489.201 157.109 487.376 153.464 488.096C153.318 488.096 153.359 488.32 153.464 488.355C156.934 489.215 160.301 490.443 163.508 492.02C163.559 492.055 163.621 492.069 163.681 492.059C163.741 492.048 163.795 492.014 163.83 491.964C163.865 491.914 163.879 491.852 163.869 491.791C163.858 491.731 163.824 491.677 163.774 491.642Z" fill="#263238"/>
<path d="M131.075 467.868C128.032 465.182 123.85 469.917 126.878 472.603C129.907 475.289 134.132 470.561 131.075 467.868Z" fill="white"/>
<path d="M169.006 479.003C168.649 476.646 165.936 476.205 164.04 476.66C160.805 477.456 157.837 479.092 155.437 481.402C155.425 481.411 155.416 481.423 155.409 481.436C155.403 481.45 155.399 481.464 155.399 481.479C155.399 481.494 155.403 481.509 155.409 481.522C155.416 481.535 155.425 481.547 155.437 481.556C155.404 481.617 155.385 481.684 155.383 481.754C155.38 481.823 155.394 481.891 155.422 481.954C155.45 482.017 155.493 482.073 155.547 482.117C155.6 482.161 155.663 482.191 155.731 482.207C158.843 482.577 162.124 483.368 165.257 482.78C167.104 482.437 169.356 481.227 169.006 479.003ZM160.578 481.801C159.046 481.654 157.528 481.43 155.989 481.339C157.638 480.368 159.336 479.481 161.074 478.681C161.923 478.309 162.794 477.991 163.683 477.73C165.082 477.359 169.734 477.457 167.39 480.64C166.096 482.403 162.41 481.99 160.578 481.808V481.801Z" fill="#263238"/>
<path d="M147.813 476.443C149.855 478.898 152.884 480.381 155.507 482.081C155.569 482.112 155.637 482.129 155.707 482.13C155.776 482.13 155.845 482.115 155.907 482.084C155.97 482.054 156.024 482.009 156.066 481.954C156.108 481.899 156.137 481.834 156.15 481.766C156.213 481.766 156.269 481.766 156.262 481.661C155.883 478.349 154.641 475.194 152.66 472.512C151.478 470.973 149.121 469.568 147.344 471.148C145.568 472.729 146.624 475.002 147.813 476.443ZM147.547 473.45C147.778 469.498 151.429 472.407 152.254 473.575C152.774 474.343 153.242 475.144 153.653 475.975C154.535 477.681 155.164 479.472 155.87 481.269C154.625 480.353 153.317 479.556 152.037 478.688C150.527 477.653 147.421 475.618 147.575 473.443L147.547 473.45Z" fill="#263238"/>
<path d="M212.4 413.269C209.714 427.832 171.391 468.309 166.936 472.953L165.929 474.009L137.251 449.528L137.615 449.102L165.719 415.983L87.2126 411.485L118.198 389.802C118.198 389.802 120.548 391.32 125.612 390.845C143.099 389.201 182.436 385.592 191.633 386.438C203.531 387.536 214.869 399.903 212.4 413.269Z" fill="#455A64"/>
<path d="M175.826 403.624C174.789 404.674 173.821 405.791 172.93 406.967C171.937 408.135 170.93 409.296 169.936 410.464V410.499C170.118 410.149 170.3 409.8 170.489 409.45C171.132 408.268 171.671 407.037 172.426 405.911C172.436 405.896 172.439 405.878 172.435 405.861C172.431 405.844 172.42 405.829 172.405 405.82C172.391 405.811 172.373 405.808 172.356 405.811C172.339 405.815 172.324 405.826 172.315 405.841C171.545 406.953 170.664 408.009 169.985 409.191C169.671 409.751 169.37 410.31 169.09 410.884C168.929 411.199 168.775 411.513 168.628 411.835C168.557 411.985 168.494 412.139 168.44 412.297C167.992 412.842 167.551 413.388 167.118 413.947C166.166 415.185 165.313 416.5 164.355 417.731C164.299 417.794 164.404 417.864 164.46 417.801C165.432 416.654 166.509 415.591 167.488 414.444C168.468 413.297 169.447 412.087 170.391 410.877C171.335 409.667 172.217 408.506 173.14 407.331C174.147 406.173 175.082 404.953 175.938 403.679C175.924 403.645 175.868 403.582 175.826 403.624Z" fill="#263238"/>
<path d="M103.307 367.21C110.826 380.367 124.787 399.588 129.62 400.7C137.664 402.553 155.374 401.511 165.53 399.112C168.726 398.357 161.956 374.862 158.43 375.38C149.338 376.723 135.824 379.129 134.845 379.08C133.068 378.989 120.541 368.994 110.994 361.181C101.978 353.809 99.7607 361.034 103.307 367.21Z" fill="#EB9481"/>
<path d="M175.868 393.321C174.553 394.02 174.916 394.72 177.539 395.188C180.162 395.657 190.927 395.23 190.752 399C190.577 402.77 175.364 403.134 171.07 402.036C166.775 400.938 160.165 397.657 160.165 397.657C163.124 396.993 170.111 394.699 175.868 393.321Z" fill="#EB9481"/>
<path d="M157.689 375.569C166.082 374.002 176.371 371.54 185.394 374.806C186.407 375.142 187.277 375.81 187.863 376.702C191.934 378.101 192.501 380.43 192.501 380.43C195.9 382.885 196.152 385.361 196.152 385.361C196.152 385.361 200.915 387.04 200.348 390.089C199.754 393.51 193.179 390.474 188.542 391.02C177.924 392.258 163.173 396.993 160.151 397.657L157.689 375.569Z" fill="#EB9481"/>
<path d="M176.525 384.494C179.629 384.098 182.755 383.911 185.884 383.934C189.306 384.178 192.705 384.676 196.054 385.424C196.074 385.426 196.094 385.421 196.111 385.41C196.128 385.398 196.14 385.381 196.145 385.362C196.15 385.342 196.148 385.321 196.139 385.303C196.13 385.285 196.115 385.271 196.096 385.263C189.774 383.173 183 382.858 176.511 384.354C176.364 384.389 176.371 384.515 176.525 384.494Z" fill="#263238"/>
<path d="M174.854 378.199C177.917 378.073 183.303 377.884 192.487 380.528C192.487 380.528 192.536 380.486 192.487 380.472C186.946 378.048 180.842 377.21 174.854 378.052C174.651 378.073 174.644 378.206 174.854 378.199Z" fill="#263238"/>
<path d="M174.007 374.792C179.225 374.792 182.519 375.429 187.842 376.716V376.66C181.953 374.561 179.575 374.471 173.965 374.617C173.79 374.617 173.804 374.792 174.007 374.792Z" fill="#263238"/>
<path d="M156.423 375.408L159.962 401.749C159.962 401.749 132.222 404.463 127.62 401.05C123.017 397.636 106.692 375.869 102.524 366.581C98.3548 357.292 104.23 355.285 110.84 360.51C117.45 365.734 134.167 378.143 134.915 378.157C135.663 378.171 156.423 375.408 156.423 375.408Z" fill="#263238"/>
<path d="M70.181 419.186C70.3069 419.333 121.989 410.793 122.5 410.198C123.199 409.394 116.044 370.491 107 358.53C104.734 355.536 97.0538 355.341 93.4727 358.054C75.7206 371.526 69.7194 418.669 70.181 419.186Z" fill="#EBEBEB"/>
<path d="M104.3 366.707C101.964 366.539 97.6344 361.629 96.1795 357.747C96.0816 357.481 96.83 354.949 97.5784 351.794C98.0331 349.885 98.5017 347.752 98.7815 345.772L110.777 350.542C109.716 352.916 108.95 355.411 108.497 357.971C108.469 358.245 108.469 358.521 108.497 358.796C108.5 358.84 108.5 358.885 108.497 358.929C108.49 360.524 107.958 366.972 104.3 366.707Z" fill="#EB9481"/>
<path d="M108.462 358.81C108.465 358.854 108.465 358.899 108.462 358.943C108.031 358.941 107.6 358.903 107.175 358.831C100.145 357.663 99.6488 348.822 99.6698 346.115L110.784 350.542C109.722 352.917 108.952 355.411 108.49 357.971C108.459 358.249 108.45 358.53 108.462 358.81Z" fill="#263238"/>
<path d="M97.8722 329.944C96.2844 334.308 97.9491 347.255 100.95 350.277C105.307 354.662 112.777 355.46 116.589 350.144C120.283 344.989 117.813 328.16 114.428 325.376C109.441 321.277 100.215 323.495 97.8722 329.944Z" fill="#EB9481"/>
<path d="M107.007 335.511C107.385 335.378 107.706 335.19 108.07 335.022C108.463 334.899 108.806 334.654 109.049 334.322C109.1 334.203 109.112 334.071 109.082 333.945C109.051 333.819 108.981 333.706 108.881 333.623C108.654 333.487 108.394 333.416 108.13 333.416C107.865 333.416 107.605 333.487 107.378 333.623C106.87 333.821 106.454 334.199 106.21 334.686C106.171 334.798 106.164 334.919 106.189 335.035C106.215 335.151 106.272 335.258 106.355 335.343C106.438 335.429 106.542 335.49 106.657 335.519C106.772 335.549 106.893 335.546 107.007 335.511Z" fill="#263238"/>
<path d="M115.603 334.665C115.205 334.665 114.841 334.546 114.449 334.483C114.036 334.474 113.638 334.329 113.316 334.07C113.237 333.973 113.19 333.853 113.183 333.727C113.175 333.602 113.207 333.477 113.274 333.371C113.457 333.179 113.687 333.039 113.941 332.964C114.195 332.889 114.464 332.882 114.722 332.944C115.258 332.998 115.756 333.247 116.121 333.644C116.19 333.74 116.232 333.853 116.241 333.971C116.251 334.089 116.227 334.207 116.174 334.312C116.12 334.418 116.039 334.507 115.938 334.569C115.837 334.631 115.722 334.664 115.603 334.665Z" fill="#263238"/>
<path d="M109.252 342.911C109.506 343.234 109.823 343.501 110.184 343.696C110.545 343.891 110.942 344.01 111.351 344.045C111.71 344.078 112.073 344.059 112.428 343.989C112.497 343.982 112.565 343.968 112.631 343.947L112.819 343.898C112.865 343.885 112.905 343.858 112.933 343.819C112.961 343.781 112.975 343.735 112.973 343.688C112.977 343.658 112.977 343.627 112.973 343.597V343.52C112.924 342.821 112.763 341.827 112.763 341.827C113.022 341.932 114.33 342.373 114.274 342.023C113.905 338.994 113.225 336.01 112.246 333.119C112.246 333.028 112.071 333.063 112.092 333.154C112.421 335.952 113.239 338.68 113.61 341.492C113.144 341.326 112.656 341.227 112.162 341.198C112.071 341.24 112.519 343.163 112.512 343.464C111.965 343.571 111.403 343.567 110.858 343.454C110.313 343.341 109.795 343.121 109.336 342.807C109.259 342.786 109.196 342.848 109.252 342.911Z" fill="#263238"/>
<path d="M112.015 343.688C111.694 344.205 111.243 344.629 110.707 344.919C110.413 345.072 110.076 345.126 109.749 345.073C109.049 344.961 108.951 344.317 109.049 343.758C109.089 343.46 109.167 343.169 109.28 342.89C110.085 343.438 111.042 343.717 112.015 343.688Z" fill="#263238"/>
<path d="M110.707 344.947C110.413 345.1 110.076 345.154 109.749 345.101C109.049 344.989 108.951 344.345 109.049 343.786C109.415 343.768 109.777 343.872 110.077 344.082C110.377 344.293 110.599 344.597 110.707 344.947Z" fill="#FF9BBC"/>
<path d="M107.469 338.484C107.52 338.715 107.634 338.928 107.797 339.099C107.89 339.188 108 339.256 108.12 339.301C108.241 339.345 108.369 339.365 108.497 339.358C108.629 339.345 108.757 339.303 108.871 339.234C108.985 339.165 109.082 339.071 109.154 338.96C109.272 338.759 109.342 338.534 109.357 338.302C109.368 338.162 109.368 338.022 109.357 337.882C109.341 337.594 109.257 337.314 109.112 337.064C109.133 337.271 109.133 337.48 109.112 337.687C109.097 337.875 109.066 338.062 109.021 338.246C108.93 338.617 108.742 338.946 108.448 338.946C108.154 338.946 107.895 338.743 107.748 338.386C107.605 338.01 107.5 337.621 107.434 337.225C107.345 337.641 107.357 338.073 107.469 338.484Z" fill="#263238"/>
<path d="M114.162 337.819C114.183 338.057 114.268 338.284 114.407 338.477C114.492 338.582 114.598 338.668 114.719 338.728C114.839 338.789 114.972 338.822 115.107 338.827C115.239 338.833 115.371 338.809 115.493 338.755C115.614 338.702 115.721 338.621 115.806 338.519C115.951 338.337 116.052 338.124 116.1 337.896C116.132 337.761 116.15 337.623 116.156 337.484C116.18 337.195 116.134 336.905 116.023 336.637C116.025 336.845 116.001 337.051 115.953 337.253C115.912 337.438 115.858 337.62 115.792 337.798C115.652 338.155 115.421 338.449 115.093 338.407C114.764 338.365 114.568 338.134 114.477 337.756C114.386 337.366 114.333 336.968 114.316 336.567C114.166 336.967 114.114 337.396 114.162 337.819Z" fill="#263238"/>
<path d="M97.3616 341.995C99.7747 341.219 100.733 333.007 100.733 333.007C100.733 333.007 100.831 336.469 101.481 336.365C102.132 336.26 104.629 331.468 104.811 328.083C106.777 329.288 108.894 330.229 111.106 330.881C114.218 331.699 117.625 331.377 117.611 330.881C117.555 329.321 115.995 325.285 113.827 323.886C112.238 322.77 110.383 322.092 108.449 321.921C106.515 321.75 104.57 322.093 102.81 322.914C97.8372 325.012 96.6272 328.3 95.9697 330.832C95.3122 333.364 96.4733 342.282 97.3616 341.995Z" fill="#263238"/>
<path d="M100.061 340.54C100.061 340.54 97.2637 336.295 95.3751 337.267C93.4866 338.239 95.4451 344.324 97.6274 345.22C97.9011 345.36 98.2006 345.442 98.5074 345.461C98.8142 345.481 99.1217 345.437 99.4109 345.333C99.7001 345.228 99.9648 345.066 100.189 344.855C100.412 344.644 100.59 344.39 100.712 344.107L100.061 340.54Z" fill="#EB9481"/>
<path d="M95.9907 338.994V339.057C97.5155 339.757 98.2848 341.198 98.7884 342.709C98.7035 342.55 98.5854 342.412 98.4421 342.304C98.2989 342.196 98.1339 342.12 97.9585 342.081C97.7831 342.043 97.6014 342.042 97.4259 342.081C97.2504 342.119 97.0853 342.195 96.9419 342.303C96.9 342.303 96.9419 342.401 96.9839 342.387C97.2595 342.312 97.5514 342.324 97.8202 342.42C98.089 342.517 98.322 342.693 98.4877 342.925C98.7643 343.317 98.9987 343.737 99.1871 344.177C99.2501 344.317 99.5019 344.254 99.4599 344.093C99.4569 344.08 99.4569 344.065 99.4599 344.052C99.5508 342.079 98.103 339.267 95.9907 338.994Z" fill="#263238"/>
<path d="M111.455 322.313C109.865 321.395 108.15 320.714 106.363 320.291C104.356 319.858 97.9211 319.788 96.2774 320.935C94.6337 322.082 93.6965 328.069 93.5776 328.943C93.4586 329.818 93.3817 335.182 95.1933 336.637C97.0049 338.092 97.9911 329.062 101.299 326.334C104.608 323.607 111.455 322.313 111.455 322.313Z" fill="#71CC75"/>
<path opacity="0.1" d="M111.455 322.32C111.455 322.32 104.615 323.6 101.306 326.334C97.9981 329.069 97.0119 338.092 95.1933 336.637C94.3959 336.001 94.0532 335.12 93.7944 333.672C94.4309 331.07 95.8928 327.062 98.3198 324.411C100.614 321.935 104.286 320.914 108.112 320.809C109.269 321.214 110.387 321.719 111.455 322.32Z" fill="black"/>
<path d="M95.2493 342.058C95.634 339.659 98.6556 333.42 101.544 329.951C104.433 326.481 112.19 324.985 113.246 325.138C115.799 325.509 116.149 326.852 116.575 326.663C117.002 326.474 114.981 323.816 114.295 323.32C113.61 322.823 111.763 321.634 110.644 321.564C109.525 321.494 102.586 321.564 99.8307 324.278C97.0748 326.992 92.8362 334.903 93.2698 337.064C93.3817 337.582 94.0252 337.966 94.1721 338.701C94.375 339.666 94.4729 340.799 94.7037 341.45C94.8926 342.002 95.2143 342.261 95.2493 342.058Z" fill="#71CC75"/>
<path d="M102.293 328.342C101.735 327.92 101.213 327.452 100.733 326.943C100.237 326.447 99.8021 325.893 99.4389 325.292C99.4389 325.25 99.341 325.292 99.362 325.327C99.6477 325.991 100.035 326.607 100.509 327.153C100.998 327.68 101.578 328.114 102.223 328.433C102.293 328.496 102.349 328.384 102.293 328.342Z" fill="#263238"/>
<path d="M95.4381 339.645C95.3892 339.463 95.2842 339.302 95.2213 339.127C95.1396 338.93 95.081 338.723 95.0464 338.512C95.0339 338.108 94.9752 337.707 94.8716 337.316C94.74 337.014 94.5759 336.728 94.3819 336.462C94.1376 336.177 93.9993 335.817 93.9903 335.441C93.9903 335.392 93.9203 335.385 93.9133 335.441C93.8434 336.141 94.291 336.735 94.5568 337.379C94.6647 337.799 94.7372 338.227 94.7736 338.659C94.8375 339.064 95.0315 339.437 95.3262 339.722C95.3682 339.75 95.4591 339.708 95.4381 339.645Z" fill="#263238"/>
<path d="M96.5152 337.113C96.3124 336.819 96.0886 336.553 95.9067 336.232C95.7411 335.927 95.5962 335.612 95.4731 335.287C95.3472 334.966 95.2493 334.637 95.1304 334.315C95.0115 333.993 94.8016 333.574 94.6757 333.182C94.6757 333.133 94.5918 333.182 94.6058 333.182C94.7317 333.581 94.7876 334.007 94.8995 334.413C95.0003 334.762 95.1265 335.104 95.2772 335.434C95.4082 335.756 95.5723 336.063 95.7668 336.351C95.9496 336.647 96.187 336.905 96.4663 337.113C96.4663 337.113 96.5152 337.134 96.5152 337.113Z" fill="#263238"/>
<path d="M97.5854 334.833C97.117 334.361 96.7189 333.824 96.4033 333.238C96.1026 332.664 95.8298 332.07 95.571 331.475C95.571 331.433 95.4801 331.475 95.494 331.475C95.6475 332.136 95.8824 332.775 96.1935 333.378C96.3465 333.67 96.5319 333.945 96.7461 334.196C96.9889 334.46 97.2612 334.694 97.5574 334.896C97.5644 334.917 97.6204 334.868 97.5854 334.833Z" fill="#263238"/>
<path d="M98.7395 332.664C98.5023 332.469 98.3031 332.232 98.1519 331.965C97.9701 331.678 97.7952 331.384 97.6204 331.084L97.1308 330.23C96.9501 329.95 96.8287 329.636 96.774 329.307C96.774 329.265 96.6971 329.265 96.6971 329.307C96.6952 329.641 96.7618 329.972 96.893 330.279C97.0153 330.622 97.1699 330.952 97.3546 331.266C97.534 331.578 97.7325 331.88 97.9491 332.168C98.1193 332.43 98.3624 332.637 98.6486 332.762C98.7395 332.776 98.7954 332.699 98.7395 332.664Z" fill="#263238"/>
<path d="M99.6768 329.86C99.4739 329.622 99.2711 329.384 99.0892 329.125C98.9074 328.866 98.7325 328.615 98.5646 328.349C98.3968 328.083 98.2079 327.796 98.047 327.51C98.047 327.461 97.9561 327.51 97.9771 327.51C98.0734 327.824 98.195 328.131 98.3408 328.426C98.4919 328.715 98.6625 328.993 98.8514 329.258C99.0366 329.521 99.24 329.772 99.4599 330.007C99.6519 330.256 99.8892 330.467 100.159 330.629C100.17 330.633 100.181 330.634 100.192 330.631C100.203 330.628 100.213 330.623 100.22 330.614C100.228 330.606 100.233 330.596 100.234 330.585C100.236 330.573 100.234 330.562 100.229 330.552C100.067 330.305 99.8819 330.073 99.6768 329.86Z" fill="#263238"/>
<path d="M104.258 327.132C104.048 326.817 103.838 326.509 103.601 326.209C103.354 325.912 103.09 325.629 102.81 325.362C102.277 324.834 101.688 324.365 101.055 323.963C101.02 323.963 100.964 323.963 100.999 324.019C102.055 325.096 103.153 326.118 104.195 327.223C104.207 327.231 104.222 327.234 104.237 327.232C104.251 327.229 104.264 327.221 104.272 327.209C104.28 327.197 104.284 327.182 104.281 327.167C104.278 327.153 104.27 327.14 104.258 327.132Z" fill="#263238"/>
<path d="M105.902 325.201C105.684 324.891 105.431 324.607 105.146 324.355C104.544 323.84 103.887 323.393 103.188 323.019C103.139 323.019 103.097 323.019 103.139 323.082C103.727 323.558 104.321 324.019 104.881 324.523C105.162 324.767 105.431 325.026 105.685 325.299C105.93 325.579 106.112 325.908 106.349 326.195C106.349 326.195 106.405 326.195 106.398 326.195C106.301 325.834 106.132 325.496 105.902 325.201Z" fill="#263238"/>
<path d="M107.986 324.432C107.785 324.127 107.55 323.845 107.287 323.593C106.804 323.101 106.238 322.699 105.615 322.404C105.58 322.404 105.545 322.446 105.58 322.474C106.137 322.876 106.657 323.327 107.133 323.823C107.378 324.068 107.602 324.327 107.832 324.586C108.052 324.863 108.285 325.13 108.532 325.383C108.532 325.383 108.581 325.383 108.574 325.383C108.411 325.047 108.214 324.728 107.986 324.432Z" fill="#263238"/>
<path d="M109.546 323.355C109.308 323.131 109.063 322.914 108.847 322.697C108.611 322.477 108.342 322.295 108.049 322.159C108 322.159 107.979 322.194 108.007 322.229C108.469 322.662 108.916 323.11 109.406 323.551C109.792 323.992 110.129 324.472 110.413 324.985H110.462C110.329 324.361 110.01 323.792 109.546 323.355Z" fill="#263238"/>
<path d="M111.386 323.131C110.956 322.657 110.441 322.267 109.868 321.984C109.826 321.984 109.791 322.033 109.833 322.054C110.358 322.393 110.829 322.807 111.232 323.285C111.627 323.758 111.972 324.271 112.26 324.817C112.26 324.817 112.323 324.817 112.309 324.817C112.141 324.189 111.825 323.61 111.386 323.131Z" fill="#263238"/>
<path d="M113.666 324.418C113.615 324.287 113.556 324.158 113.491 324.033C113.353 323.785 113.192 323.551 113.008 323.334C112.623 322.903 112.197 322.512 111.735 322.166C111.732 322.16 111.727 322.156 111.721 322.153C111.715 322.149 111.709 322.147 111.702 322.147C111.695 322.147 111.689 322.148 111.683 322.151C111.677 322.154 111.671 322.158 111.667 322.163C111.663 322.169 111.66 322.175 111.659 322.181C111.658 322.188 111.658 322.195 111.66 322.201C111.662 322.207 111.665 322.213 111.67 322.218C111.674 322.223 111.68 322.226 111.686 322.229C112.128 322.577 112.525 322.979 112.868 323.425C113.042 323.644 113.196 323.878 113.33 324.124C113.4 324.243 113.456 324.362 113.519 324.481C113.56 324.608 113.617 324.73 113.687 324.845C113.691 324.85 113.696 324.855 113.702 324.858C113.708 324.862 113.715 324.863 113.722 324.863C113.729 324.863 113.735 324.862 113.742 324.858C113.748 324.855 113.753 324.85 113.757 324.845C113.756 324.698 113.725 324.552 113.666 324.418Z" fill="#263238"/>
<path d="M115.1 324.663C114.984 324.46 114.853 324.266 114.708 324.082C114.567 323.894 114.413 323.716 114.246 323.551C114.078 323.383 113.904 323.222 113.743 323.047C113.74 323.041 113.735 323.036 113.73 323.032C113.725 323.028 113.719 323.025 113.712 323.024C113.705 323.023 113.699 323.023 113.692 323.025C113.686 323.027 113.68 323.031 113.675 323.035C113.67 323.04 113.667 323.046 113.665 323.052C113.663 323.059 113.662 323.066 113.663 323.072C113.665 323.079 113.667 323.085 113.671 323.09C113.675 323.096 113.681 323.1 113.687 323.103C113.858 323.274 114.014 323.459 114.155 323.656L114.561 324.194L114.967 324.74C115.09 324.937 115.225 325.126 115.372 325.306C115.372 325.306 115.435 325.306 115.428 325.271C115.344 325.056 115.234 324.851 115.1 324.663Z" fill="#263238"/>
<path opacity="0.6" d="M161.361 380.891C161.361 380.891 174.651 374.75 174.651 366.546C174.651 358.341 157.367 353.081 157.367 346.667C157.367 340.254 164.865 336.476 164.865 336.476C164.865 336.476 152.975 340.547 153.017 348.661C153.059 356.774 164.397 362.244 165.495 367.406C167.006 374.568 161.361 380.891 161.361 380.891Z" fill="#EBEBEB"/>
<path opacity="0.6" d="M162.019 380.891C162.019 380.891 148.729 376.093 148.729 369.644C148.729 363.195 165.943 359.013 165.936 353.97C165.929 348.927 158.409 345.975 158.409 345.975C158.409 345.975 170.3 349.143 170.3 355.522C170.3 361.901 157.248 366.308 156.325 371.526C155.402 376.744 162.019 380.891 162.019 380.891Z" fill="#EBEBEB"/>
<path d="M167.849 401.508L155.21 401.528L155.213 403.5L167.852 403.481L167.849 401.508Z" fill="#71CC75"/>
<path d="M167.856 401.508L155.217 401.528L155.219 402.829L167.858 402.809L167.856 401.508Z" fill="#263238"/>
<path d="M140.203 396.251C141.09 397.584 142.405 398.575 143.931 399.059C145.457 399.544 147.103 399.493 148.596 398.916C149.223 398.666 149.821 398.35 150.38 397.972L148.771 395.594C148.472 395.803 148.153 395.983 147.82 396.132C146.901 396.557 145.86 396.635 144.888 396.352C143.917 396.069 143.08 395.445 142.532 394.594C140.79 392.16 140.161 386.599 141.916 384.459C142.035 384.298 142.539 384.046 144.574 384.459C144.952 384.543 145.379 384.634 145.861 384.766C146.234 384.896 146.622 384.978 147.015 385.011L147.064 383.612L147.204 382.213C147.071 382.213 146.862 382.13 146.596 382.053C145.655 381.78 144.693 381.584 143.721 381.465C142.224 381.311 140.657 381.465 139.692 382.675C136.859 386.137 138.028 393.209 140.203 396.251Z" fill="#71CC75"/>
<path d="M148.785 395.594C148.486 395.803 148.167 395.983 147.834 396.132L148.61 398.93C149.237 398.68 149.835 398.364 150.394 397.986L148.785 395.594Z" fill="#263238"/>
<path d="M143.735 381.43L144.588 384.48C144.966 384.564 145.393 384.654 145.875 384.787C146.248 384.917 146.636 384.999 147.029 385.032L147.078 383.633L147.218 382.234C147.085 382.234 146.876 382.15 146.61 382.074C145.67 381.782 144.709 381.567 143.735 381.43Z" fill="#263238"/>
<path d="M178.309 377.646C178.309 377.646 176.812 390.53 174.203 395.958C171.594 401.385 167.908 401.994 165.663 401.994H157.402C155.129 401.994 151.478 401.399 148.848 395.986C146.218 390.572 144.686 377.688 144.686 377.688L178.309 377.646Z" fill="#71CC75"/>
<g opacity="0.1">
<path opacity="0.1" d="M176.525 388.348C176.266 389.537 175.987 390.705 175.672 391.845L147.365 391.887C147.05 390.782 146.764 389.607 146.498 388.425L176.525 388.348Z" fill="black"/>
<path opacity="0.1" d="M175.28 393.125C175.091 393.74 174.889 394.328 174.679 394.859L148.372 394.901C148.156 394.37 147.953 393.782 147.757 393.174L175.28 393.125Z" fill="black"/>
<path opacity="0.1" d="M177.176 385.095C177.071 385.655 176.959 386.235 176.84 386.823L146.183 386.872C146.057 386.284 145.945 385.704 145.847 385.144L177.176 385.095Z" fill="black"/>
</g>
<path d="M87.5833 367.539C80.0083 388.236 80.309 406.33 83.2607 409.317C89.7096 415.822 117.723 408.618 124.724 407.638C127.522 407.247 119.01 384.613 116.051 385.389C109.056 387.215 99.1732 390.656 98.8164 390.551C98.117 390.348 98.8164 384.088 97.8932 367.525C97.1657 354.124 90.6819 359.076 87.5833 367.539Z" fill="#EB9481"/>
<path d="M151.443 381.248C151.632 384.046 144.679 383.934 144.679 383.934C145.731 384.539 146.54 385.491 146.967 386.627C147.617 388.655 144.714 390.572 144.714 390.572C145.676 391.423 146.359 392.544 146.673 393.789C147.099 395.804 144.442 398.154 144.442 398.154C144.873 399.425 144.853 400.806 144.386 402.064C142.091 407.596 126.606 408.632 122.129 407.995L114.848 386.249C114.848 386.249 127.291 377.052 133.544 376.422C137.02 376.03 151.149 376.961 151.443 381.248Z" fill="#EB9481"/>
<path d="M144.616 383.864C140.881 383.025 136.922 383.088 133.173 383.165C133.089 383.165 133.089 383.291 133.173 383.298C136.936 383.416 140.825 383.997 144.588 383.997C144.599 383.991 144.609 383.982 144.617 383.972C144.624 383.961 144.63 383.949 144.632 383.937C144.635 383.924 144.635 383.911 144.632 383.899C144.629 383.886 144.624 383.874 144.616 383.864Z" fill="#263238"/>
<path d="M144.651 390.453C143.785 390.341 142.908 390.341 142.042 390.453C141.119 390.523 140.203 390.614 139.245 390.712C137.407 390.917 135.575 391.164 133.747 391.453C133.67 391.453 133.67 391.593 133.747 391.586C135.579 391.39 137.412 391.215 139.252 391.096L142.049 390.936C142.923 390.949 143.796 390.867 144.651 390.691C144.672 390.678 144.688 390.661 144.7 390.64C144.711 390.619 144.718 390.596 144.718 390.572C144.718 390.548 144.711 390.525 144.7 390.504C144.688 390.483 144.672 390.466 144.651 390.453Z" fill="#263238"/>
<path d="M144.365 398.154C143.581 398.07 142.789 398.12 142.021 398.301L139.51 398.616C137.839 398.811 136.16 399.014 134.481 399.154C134.397 399.154 134.404 399.294 134.481 399.287C136.188 399.147 137.895 399.035 139.601 398.888L142.119 398.65C142.889 398.648 143.651 398.508 144.372 398.238C144.372 398.238 144.407 398.168 144.365 398.154Z" fill="#263238"/>
<path d="M144.777 400.049C144.88 401.158 144.582 402.267 143.938 403.176C143.271 404.085 142.383 404.807 141.357 405.274C139.378 406.222 137.296 406.938 135.153 407.408C133.023 407.898 130.857 408.219 128.676 408.366C126.496 408.516 124.307 408.467 122.136 408.219H122.192C120.56 408.513 118.928 408.781 117.296 409.023C118.9 408.604 120.509 408.205 122.122 407.827H122.178C124.33 407.951 126.488 407.914 128.634 407.715C130.779 407.533 132.91 407.211 135.013 406.75C137.114 406.307 139.17 405.671 141.154 404.848C142.139 404.46 143.015 403.838 143.707 403.036C144.398 402.194 144.776 401.139 144.777 400.049Z" fill="#263238"/>
<path d="M115.1 384.962L119.765 410.415C119.765 410.415 85.2401 417.207 81.8338 409.016C78.4275 400.826 82.848 374.687 88.5066 364.384C94.1651 354.082 97.5994 359.642 98.2009 367.07C98.8024 374.499 99.1172 389.453 99.2711 389.418C99.425 389.383 115.1 384.962 115.1 384.962Z" fill="#263238"/>
<path d="M274.819 478.402C274.035 480.227 238.091 520.48 235.748 521.152C234.859 521.411 228.697 516.515 221.409 510.394C219.835 509.072 218.219 507.695 216.583 506.289C205.965 497.196 194.9 487.264 194.9 487.264L218.863 460.265L239.846 480.038L244.463 484.375C244.463 484.375 265.117 475.114 267.768 474.66C270.419 474.205 275.574 476.576 274.819 478.402Z" fill="#EB9481"/>
<path d="M274.819 478.402C274.035 480.227 238.091 520.481 235.748 521.152C234.67 521.46 225.787 514.157 216.583 506.289L239.902 480.038L244.519 484.375C244.519 484.375 265.173 475.114 267.824 474.66C270.475 474.205 275.574 476.576 274.819 478.402Z" fill="white"/>
<path d="M274.819 478.402C274.035 480.227 238.091 520.481 235.748 521.152C234.859 521.411 228.697 516.515 221.409 510.394L244.491 484.375C244.491 484.375 265.145 475.114 267.796 474.66C270.447 474.205 275.574 476.576 274.819 478.402Z" fill="#71CC75"/>
<path d="M272.692 477.541C266.481 484.137 242.154 511.346 236.538 518.34C236.489 518.396 236.538 518.431 236.58 518.375C242.875 511.968 266.985 484.571 272.804 477.639C272.923 477.492 272.825 477.401 272.692 477.541Z" fill="#263238"/>
<path d="M264.047 475.954C263.359 476.688 262.83 477.557 262.493 478.505C262.156 479.454 262.019 480.461 262.089 481.465C262.209 483.27 263.018 484.96 264.348 486.186C264.39 486.221 264.46 486.152 264.418 486.11C263.285 484.687 262.644 482.936 262.592 481.118C262.541 479.3 263.081 477.515 264.131 476.031C264.18 475.975 264.096 475.905 264.047 475.954Z" fill="#263238"/>
<path d="M247.512 482.354C245.064 485.025 243.225 489.005 243.931 492.656C243.931 492.796 244.162 492.754 244.19 492.656C245.061 489.188 246.301 485.823 247.89 482.619C247.925 482.569 247.939 482.507 247.929 482.447C247.918 482.387 247.884 482.333 247.834 482.298C247.784 482.262 247.722 482.248 247.662 482.259C247.601 482.269 247.548 482.303 247.512 482.354Z" fill="#263238"/>
<path d="M250.191 480.997C247.743 483.662 245.897 487.648 246.61 491.299C246.61 491.439 246.834 491.397 246.869 491.299C247.737 487.834 248.975 484.471 250.562 481.269C250.598 481.22 250.613 481.159 250.604 481.098C250.595 481.038 250.562 480.984 250.513 480.948C250.464 480.911 250.402 480.896 250.342 480.905C250.282 480.915 250.227 480.947 250.191 480.997Z" fill="#263238"/>
<path d="M252.863 479.64C250.415 482.305 248.575 486.284 249.282 489.936C249.282 490.082 249.513 490.04 249.541 489.936C250.413 486.467 251.653 483.103 253.241 479.898C253.266 479.849 253.273 479.791 253.259 479.737C253.245 479.682 253.212 479.635 253.166 479.603C253.119 479.571 253.063 479.557 253.007 479.564C252.952 479.571 252.9 479.598 252.863 479.64Z" fill="#263238"/>
<path d="M255.542 478.276C253.087 480.948 251.247 484.928 251.961 488.579C251.961 488.719 252.185 488.677 252.213 488.579C253.083 485.11 254.324 481.745 255.913 478.542C255.948 478.492 255.962 478.431 255.952 478.372C255.943 478.312 255.909 478.259 255.86 478.223C255.811 478.188 255.75 478.174 255.69 478.184C255.631 478.193 255.577 478.227 255.542 478.276Z" fill="#263238"/>
<path d="M231.663 510.898C228.963 513.934 233.684 518.13 236.384 515.095C239.084 512.059 234.363 507.855 231.663 510.898Z" fill="white"/>
<path d="M242.917 473.002C240.56 473.359 240.119 476.065 240.553 477.961C241.344 481.198 242.97 484.171 245.267 486.585C245.276 486.597 245.288 486.606 245.301 486.613C245.315 486.619 245.329 486.623 245.344 486.623C245.359 486.623 245.373 486.619 245.387 486.613C245.4 486.606 245.412 486.597 245.421 486.585C245.481 486.62 245.549 486.64 245.619 486.643C245.688 486.646 245.758 486.633 245.821 486.604C245.885 486.576 245.94 486.532 245.984 486.478C246.027 486.424 246.057 486.36 246.071 486.291C246.463 483.179 247.26 479.905 246.68 476.765C246.344 474.918 245.141 472.666 242.917 473.002ZM245.715 481.444C245.561 482.976 245.337 484.494 245.239 486.033C244.323 484.347 243.344 482.71 242.595 480.941C242.228 480.089 241.915 479.216 241.658 478.325C241.287 476.926 241.399 472.274 244.575 474.632C246.309 475.926 245.876 479.612 245.694 481.444H245.715Z" fill="#263238"/>
<path d="M240.28 494.188C242.742 492.16 244.239 489.138 245.939 486.494C245.972 486.434 245.99 486.366 245.992 486.297C245.994 486.228 245.979 486.159 245.949 486.097C245.919 486.034 245.874 485.98 245.819 485.939C245.763 485.897 245.699 485.869 245.631 485.858C245.631 485.795 245.631 485.739 245.526 485.746C242.213 486.106 239.054 487.337 236.37 489.313C234.824 490.488 233.411 492.81 234.971 494.629C236.531 496.447 238.846 495.37 240.28 494.188ZM237.286 494.447C233.334 494.202 236.258 490.558 237.426 489.74C238.195 489.218 238.999 488.751 239.832 488.341C241.558 487.518 243.326 486.785 245.127 486.145C244.211 487.383 243.413 488.691 242.539 489.964C241.504 491.481 239.462 494.58 237.286 494.447Z" fill="#263238"/>
<path d="M238.937 475.744L213.876 506.149L137.636 447.22L130.278 441.534C130.278 441.534 128.046 442.87 124.682 444.499C120.038 446.766 113.26 449.584 107.364 450.144C97.4735 451.095 81.0924 450.095 73.3915 438.603C66.9006 428.93 71.2931 416.969 71.2931 416.969L82.3095 412.898C82.3095 412.898 108.889 392.957 125.465 393.167C132.502 393.251 142.441 399.091 151.618 405.134C160.795 411.178 238.937 475.744 238.937 475.744Z" fill="#455A64"/>
<path d="M130.271 441.52C130.271 441.52 128.039 442.856 124.675 444.485C119.282 437.316 107.762 424.201 107.42 423.733L130.271 441.52Z" fill="#263238"/>
<path d="M92.0528 406.254C90.472 407.233 88.9402 408.282 87.3804 409.289C85.8207 410.296 84.2679 411.206 82.799 412.304C81.3302 413.402 79.8893 414.612 78.4765 415.801C77.777 416.389 77.1195 416.976 76.4551 417.585C75.7601 418.164 75.1123 418.798 74.5176 419.48C74.4616 419.543 74.5595 419.634 74.6225 419.592C75.3564 419.12 76.0575 418.599 76.7208 418.032C77.4692 417.473 78.2037 416.899 78.9451 416.333C80.379 415.234 81.8338 414.178 83.2607 413.073C84.6876 411.968 86.0025 410.779 87.4084 409.674C88.8143 408.569 90.493 407.394 92.0528 406.281C92.1087 406.281 92.0877 406.233 92.0528 406.254Z" fill="#263238"/>
<path d="M233.488 474.345C231.887 475.912 230.383 477.604 228.879 479.241C227.375 480.878 225.864 482.584 224.368 484.263C221.374 487.627 218.359 490.978 215.415 494.384C213.799 496.259 212.204 498.14 210.686 500.099C210.616 500.189 210.756 500.294 210.833 500.217C214.03 497.049 216.974 493.65 219.961 490.285C222.948 486.921 225.927 483.536 228.872 480.122C230.481 478.255 232.131 476.394 233.621 474.436C233.684 474.345 233.558 474.24 233.488 474.345Z" fill="#263238"/>
<path d="M168.558 471.295C164.788 467.994 160.865 464.853 156.927 461.741C152.989 458.628 149.114 455.523 145.134 452.508C143.994 451.641 142.84 450.787 141.693 449.934C140.546 449.081 139.343 448.29 138.195 447.409C138.132 447.36 138.07 447.472 138.132 447.521C139.161 448.339 140.126 449.256 141.14 450.102C142.154 450.948 143.064 451.739 144.036 452.536C145.931 454.103 147.855 455.642 149.771 457.18C153.66 460.314 157.586 463.398 161.55 466.434C163.802 468.155 166.04 469.882 168.349 471.526C168.558 471.624 168.712 471.407 168.558 471.295Z" fill="#263238"/>
<path d="M195.543 439.974C192.046 436.777 188.311 433.868 184.639 430.881C180.967 427.894 177.246 424.824 173.518 421.83L162.431 412.912C158.85 410.031 155.283 407.107 151.478 404.519C149.38 403.12 147.246 401.777 145.036 400.574C142.896 399.336 140.655 398.282 138.335 397.426C138.321 397.425 138.307 397.428 138.294 397.435C138.282 397.443 138.272 397.453 138.266 397.466C138.26 397.479 138.258 397.494 138.26 397.508C138.263 397.522 138.269 397.535 138.279 397.545C140.161 398.727 142.154 399.742 144.057 400.882C145.959 402.022 147.799 403.204 149.617 404.435C153.394 407.002 156.941 409.877 160.508 412.73C167.908 418.655 175.294 424.621 182.757 430.447C186.954 433.721 191.004 437.162 195.347 440.198C195.494 440.296 195.669 440.072 195.543 439.974Z" fill="#263238"/>
<path d="M136.741 469.351H26.9551V477.241H136.741V469.351Z" fill="#37474F"/>
<path d="M50.9532 477.248L48.0295 483.85L33.7467 516.144H30.0956L39.699 483.85L41.6575 477.248H50.9532Z" fill="#37474F"/>
<path d="M41.6575 477.248H50.9532L48.0295 483.85H39.699L41.6575 477.248Z" fill="#263238"/>
<path d="M133.607 516.144H129.956L115.673 483.85L112.756 477.248H122.045L124.011 483.85L133.607 516.144Z" fill="#37474F"/>
<path d="M124.011 483.85H115.673L112.756 477.248H122.045L124.011 483.85Z" fill="#263238"/>
<path d="M91.4722 460.006H44.0986V469.351H91.4722V460.006Z" fill="#71CC75"/>
<path d="M51.6806 460.006H47.0502V469.351H51.6806V460.006Z" fill="#37474F"/>
<path d="M55.3247 460.006H53.3942V469.351H55.3247V460.006Z" fill="#37474F"/>
<path d="M85.9046 460.006H81.2742V469.351H85.9046V460.006Z" fill="#37474F"/>
<path d="M74.2098 453.033H41.3497V460.006H74.2098V453.033Z" fill="#455A64"/>
<path d="M88.3877 453.033H74.2099V460.006H88.3877V453.033Z" fill="#455A64"/>
<path d="M74.2098 453.753H41.3497V459.279H74.2098V453.753Z" fill="white"/>
<path d="M43.476 454.893C46.036 454.83 48.596 454.781 51.17 454.76L58.8639 454.718L66.5579 454.76C69.1178 454.76 71.6778 454.83 74.2518 454.893C71.6918 454.956 69.1318 455.005 66.5579 455.026L58.8639 455.068L51.17 455.026C48.596 455.005 46.036 454.956 43.476 454.893Z" fill="#DBDBDB"/>
<path d="M43.476 455.977C46.036 455.914 48.596 455.865 51.17 455.844L58.8639 455.802L66.5579 455.844C69.1178 455.844 71.6778 455.914 74.2518 455.977C71.6918 456.04 69.1318 456.089 66.5579 456.11L58.8639 456.152L51.17 456.11C48.596 456.089 46.036 456.04 43.476 455.977Z" fill="#DBDBDB"/>
<path d="M43.476 457.061C46.036 456.999 48.596 456.95 51.17 456.929L58.8639 456.887L66.5579 456.929C69.1178 456.929 71.6778 456.999 74.2518 457.061C71.6918 457.124 69.1318 457.173 66.5579 457.194L58.8639 457.236L51.17 457.194C48.596 457.173 46.036 457.124 43.476 457.061Z" fill="#DBDBDB"/>
<path d="M43.476 458.146C46.036 458.083 48.596 458.034 51.17 458.013L58.8639 457.971L66.5579 458.013C69.1178 458.013 71.6778 458.083 74.2518 458.146C71.6918 458.209 69.1318 458.257 66.5579 458.278L58.8639 458.32L51.17 458.278C48.596 458.257 46.036 458.209 43.476 458.146Z" fill="#DBDBDB"/>
<path d="M81.603 445.388H48.7149V453.033H81.603V445.388Z" fill="#37474F"/>
<path d="M78.1127 445.388H75.0492V453.033H78.1127V445.388Z" fill="#71CC75"/>
<path d="M73.0418 445.388H71.8527V453.033H73.0418V445.388Z" fill="#71CC75"/>
<path d="M253.276 390.005C253.468 386.666 253.936 383.349 254.675 380.087C255.374 377.149 256.367 374.149 258.214 371.694C259.028 370.549 260.061 369.578 261.253 368.836C262.446 368.094 263.773 367.596 265.159 367.371C267.88 367.035 270.433 368.245 272.469 369.959C274.987 372.057 276.917 374.897 278.729 377.618C280.717 380.667 282.524 383.829 284.142 387.089C284.198 387.194 284.031 387.284 283.975 387.18C282.577 384.414 280.96 381.764 279.141 379.255C277.479 376.846 275.607 374.59 273.546 372.512C271.678 370.687 269.307 369.015 266.607 368.896C265.28 368.911 263.975 369.234 262.795 369.841C261.615 370.448 260.592 371.322 259.809 372.393C257.997 374.708 257.074 377.604 256.381 380.43C255.668 383.533 255.2 386.688 254.982 389.865C254.451 396.398 254.283 402.973 254.157 409.52C254.073 413.227 254.024 416.934 253.989 420.641L253.947 426.279C254.015 428.091 253.943 429.906 253.73 431.706C253.667 432.07 253.073 432.035 253.031 431.706C252.811 430 252.726 428.278 252.779 426.559L252.716 421.215C252.716 417.752 252.667 414.29 252.681 410.835C252.723 403.91 252.807 396.937 253.276 390.005Z" fill="#263238"/>
<path d="M262.613 385.074C262.956 383.228 263.586 380.822 264.635 379.395C266.523 376.821 268.566 377.94 266.677 380.794C265.287 382.9 264.381 385.289 264.026 387.788C264.026 387.788 267.202 392.328 271.021 394.566C270.853 392.817 270.363 390.131 270.706 387.571C271.44 381.976 274.833 382.276 273.993 386.732C273.386 389.697 273.128 392.723 273.224 395.748C274.507 396.575 275.883 397.249 277.323 397.755C277.106 397.105 276.875 396.321 276.623 395.377C275.259 390.348 278.61 388.781 278.722 391.607C278.934 394.02 279.369 396.409 280.023 398.741C281.862 399.357 283.387 399.784 284.324 400.14C286.744 401.031 288.907 402.507 290.619 404.435C292.367 402.856 293.819 400.978 294.907 398.888C293.732 397.881 291.878 396.384 289.311 394.566C284.485 391.166 286.164 386.872 290.011 389.537C292.774 391.467 294.907 395.041 295.879 396.874C297.183 393.678 297.922 390.279 298.061 386.83C294.277 383.277 284.912 378.325 287.738 378.325C290.277 378.325 295.963 382.053 298.047 383.486C297.992 382.509 297.885 381.536 297.726 380.57C294.159 378.234 282.569 374.596 284.436 373.575C286.465 372.428 294.55 376.17 297.026 377.359C296.563 375.769 295.838 374.268 294.879 372.918C289.983 366.322 281.065 364.049 277.19 365.308C274.441 366.196 275.245 373.156 274.658 372.918C263.572 368.42 258.557 371.526 262.613 385.074ZM289.633 384.312C290.409 383.368 294.033 386.151 292.983 387.669C291.934 389.187 288.619 385.515 289.633 384.312ZM270.748 378.381C271.699 378.982 270.293 382.5 268.831 381.437C267.558 380.528 269.769 377.765 270.727 378.381H270.748Z" fill="#71CC75"/>
<path d="M272.175 379.458C272.671 378.471 273.189 377.492 273.756 376.548C274.276 375.611 274.888 374.728 275.581 373.911C275.42 373.715 275.266 373.519 275.106 373.33C275.043 373.254 275.154 373.142 275.224 373.219L275.763 373.855C275.797 373.877 275.824 373.908 275.84 373.946C276.521 374.762 277.164 375.601 277.77 376.464C278.855 376.712 279.924 377.02 280.974 377.387C282.058 377.751 283.128 378.129 284.177 378.569C284.289 378.618 284.233 378.8 284.121 378.751C283.086 378.29 282.023 377.842 280.946 377.478C279.869 377.114 278.89 376.87 277.854 376.576C278.19 377.052 278.519 377.534 278.841 378.017C280.785 378.635 282.677 379.407 284.499 380.325C286.409 381.234 288.255 382.29 290.095 383.354C290.193 383.41 290.095 383.57 289.997 383.507C288.199 382.437 286.332 381.521 284.436 380.633C282.667 379.8 280.827 379.122 279.043 378.332C283.541 385.326 286.241 393.461 289.85 400.966C289.906 401.078 289.731 401.162 289.689 401.057C288.584 398.427 287.318 395.86 286.115 393.272C285.038 390.95 284.017 388.613 282.911 386.277C282.597 385.578 282.268 384.92 281.939 384.242C282.135 387.998 282.058 391.81 282.674 395.517C282.674 395.541 282.664 395.564 282.647 395.581C282.63 395.598 282.607 395.608 282.583 395.608C282.559 395.608 282.535 395.598 282.518 395.581C282.501 395.564 282.492 395.541 282.492 395.517C282.226 391.509 281.519 387.564 281.547 383.528C281.547 383.528 281.547 383.528 281.547 383.479C280.778 381.948 279.967 380.437 279.085 378.961C277.596 382.458 276.029 386.039 275.336 389.81C275.336 389.921 275.127 389.872 275.154 389.754C276.169 385.977 277.106 382.192 278.932 378.695C277.973 377.106 276.912 375.58 275.756 374.128C275.259 375.058 274.616 375.946 274.049 376.835C273.483 377.723 272.944 378.583 272.434 379.479C271.33 381.378 270.394 383.369 269.636 385.431C269.594 385.543 269.405 385.487 269.454 385.375C270.321 383.417 271.189 381.395 272.175 379.458Z" fill="#263238"/>
<path d="M236.692 387.998C239.58 385.102 242.938 381.297 247.4 381.304C251.709 381.304 254.877 384.801 256.703 388.362C258.605 392.104 259.291 396.342 259.83 400.462C260.461 405.399 260.842 410.364 260.97 415.339C261.047 418.102 261.04 420.872 260.97 423.635C260.975 426.445 260.765 429.251 260.34 432.028C260.256 432.476 259.543 432.49 259.515 432.028C259.389 429.706 259.48 427.363 259.515 425.034C259.55 422.705 259.515 420.452 259.403 418.158C259.235 413.521 258.899 408.897 258.354 404.288C257.878 400.266 257.5 396.125 256.297 392.237C255.213 388.739 253.171 384.724 249.618 383.186C244.77 381.087 240.035 384.92 236.86 388.166C236.755 388.201 236.608 388.082 236.692 387.998Z" fill="#263238"/>
<path d="M221.954 394.468C221.954 395.062 222.01 395.643 222.052 396.216C223.445 395.182 225.072 394.509 226.788 394.258C230.886 393.824 230.621 396.937 227.886 397.056C225.967 397.083 224.07 397.465 222.29 398.182C222.99 403.596 224.444 407.974 224.668 408.009C228.307 407.791 231.927 407.324 235.503 406.61C234.482 404.435 232.159 401.553 233.341 401.315C234.523 401.078 235.817 403.652 236.475 406.407C239.154 405.9 241.788 405.177 244.351 404.246C242.553 402.679 239.762 400.749 240.853 399.91C241.945 399.07 244.134 401.819 245.456 403.805C246.666 403.319 247.811 402.682 248.862 401.91C246.435 398.343 240.511 397.615 241.287 395.034C242.064 392.453 247.582 396.035 250.086 400.812C253.01 397.783 253.863 393.496 253.583 389.83C251.037 389.537 246.141 390.068 246.498 388.243C246.855 386.417 250.387 386.76 253.283 387.83C253.016 386.379 252.436 385.004 251.583 383.801C248.904 380.36 240.721 384.738 240.721 384.738C240.721 384.738 241.595 376.513 238.475 375.093C236.678 374.275 233.502 374.282 230.32 376.156C232.103 376.303 234.265 376.856 235.132 378.108C236.237 379.688 234.489 380.549 233.376 379.821C232.593 379.304 231.124 377.674 228.48 377.464C227.35 378.413 226.354 379.512 225.522 380.731C225.221 381.157 224.941 381.605 224.661 382.13C226.172 381.449 227.815 381.111 229.471 381.14C231.128 381.169 232.758 381.564 234.244 382.297C237.79 384.06 235.81 387.746 232.754 386.312C229.697 384.878 226.795 383.472 223.563 384.284C222.42 387.204 221.889 390.327 222.003 393.461C223.585 392.305 225.366 391.45 227.256 390.936C230.788 390.012 231.852 392.118 227.956 392.509C225.843 392.746 223.8 393.412 221.954 394.468ZM226.249 388.809C226.004 387.662 228.508 387.333 228.921 388.264C229.271 389.054 226.487 389.949 226.249 388.809ZM247.652 395.104C247.883 394.482 249.562 395.195 249.408 395.972C249.198 397.035 247.421 395.762 247.652 395.132V395.104ZM235.831 399.119C237.055 398.63 238.958 401.665 237.629 402.358C236.3 403.05 234.838 399.546 235.831 399.147V399.119Z" fill="#71CC75"/>
<path d="M225.116 407.401C226.955 404.33 228.774 401.238 230.711 398.224C231.611 396.825 232.544 395.447 233.509 394.09C233.362 394.055 233.216 394.013 233.069 393.985C232.922 393.957 232.586 393.887 232.369 393.845C231.803 393.747 231.236 393.663 230.663 393.607C230.089 393.552 229.585 393.524 229.047 393.517C228.472 393.484 227.895 393.514 227.326 393.607C227.256 393.607 227.242 393.51 227.326 393.517C227.9 393.517 228.487 393.461 229.061 393.454C229.634 393.447 230.18 393.454 230.739 393.496C231.299 393.538 231.782 393.58 232.299 393.656C232.586 393.698 232.873 393.754 233.16 393.81C233.334 393.835 233.507 393.87 233.677 393.915C234.67 392.516 235.706 391.208 236.769 389.893C233.587 388.345 230.2 387.261 226.711 386.676C226.648 386.676 226.669 386.578 226.711 386.592C230.253 387.089 233.695 388.142 236.909 389.712C237.496 389.012 238.091 388.271 238.685 387.557C239.28 386.844 240.084 385.977 240.665 385.13C240.7 385.074 240.784 385.13 240.735 385.186C239.908 386.095 239.13 387.047 238.405 388.04C239.72 388.956 240.97 389.961 242.147 391.048C243.372 392.132 244.568 393.251 245.722 394.405C245.73 394.413 245.735 394.425 245.735 394.436C245.735 394.448 245.73 394.459 245.722 394.468C245.713 394.476 245.702 394.481 245.69 394.481C245.678 394.481 245.667 394.476 245.659 394.468C244.512 393.335 243.323 392.244 242.085 391.208C240.847 390.173 239.532 389.229 238.287 388.208C238.007 388.585 237.72 388.963 237.433 389.334C237.286 389.516 237.146 389.705 237 389.893C237.003 389.907 237.003 389.922 237 389.935C236.517 390.558 236.041 391.18 235.601 391.81C236.146 392.617 236.615 393.474 237 394.37C237.412 395.237 237.769 396.139 238.098 397.035C238.754 398.914 239.266 400.841 239.629 402.798C239.629 402.854 239.553 402.882 239.539 402.798C239.149 400.869 238.59 398.978 237.867 397.147C237.51 396.209 237.104 395.293 236.685 394.349C236.265 393.405 235.838 392.719 235.482 391.88C235.069 392.425 234.663 392.978 234.258 393.531L233.908 394.02C233.908 394.055 233.908 394.104 233.873 394.104C232.607 395.867 231.411 397.671 230.236 399.497C230.31 399.621 230.364 399.755 230.397 399.896C230.474 400.119 230.544 400.343 230.614 400.595C230.739 401.05 230.844 401.504 230.928 401.994C231.012 402.483 231.068 402.861 231.117 403.302C231.121 403.8 231.156 404.298 231.222 404.792C231.222 404.862 231.124 404.869 231.131 404.792C231.169 404.323 231.136 403.851 231.033 403.393C230.963 402.924 230.879 402.449 230.767 401.994C230.656 401.539 230.558 401.155 230.432 400.742C230.369 400.532 230.299 400.322 230.229 400.119C230.159 399.917 230.138 399.896 230.103 399.777C229.55 400.637 229.012 401.497 228.473 402.365L225.312 407.527C225.303 407.539 225.293 407.55 225.28 407.559C225.268 407.568 225.254 407.574 225.239 407.577C225.208 407.584 225.177 407.578 225.151 407.561C225.125 407.545 225.107 407.518 225.1 407.488C225.094 407.458 225.099 407.427 225.116 407.401Z" fill="#263238"/>
<path d="M253.472 430.979C253.521 429.237 253.793 427.482 253.982 425.747C254.171 424.013 254.367 422.25 254.556 420.529C254.912 417.172 255.108 413.745 255.899 410.457C256.482 407.593 257.909 404.969 259.997 402.924C261.08 401.845 262.499 401.169 264.019 401.008C265.547 400.964 267.047 401.427 268.286 402.323C269.693 403.363 270.908 404.641 271.874 406.1C272.911 407.548 273.846 409.067 274.672 410.646C274.672 410.709 274.609 410.744 274.574 410.688C273.024 408.05 270.968 405.744 268.524 403.903C267.434 403.01 266.106 402.458 264.705 402.316C264.021 402.304 263.342 402.429 262.707 402.682C262.071 402.936 261.493 403.313 261.005 403.792C258.976 405.554 257.801 408.156 257.095 410.702C256.385 413.766 255.88 416.874 255.584 420.005C255.337 421.87 255.104 423.714 254.884 425.537C254.64 427.37 254.486 429.251 254.094 431.063C254.083 431.146 254.039 431.22 253.973 431.271C253.907 431.321 253.823 431.343 253.741 431.332C253.658 431.321 253.584 431.278 253.533 431.211C253.483 431.145 253.46 431.062 253.472 430.979Z" fill="#263238"/>
<path d="M262.04 417.48C262.578 418.209 263.216 418.859 263.935 419.41C263.649 417.71 263.299 414.696 264.159 413.115C265.488 410.618 267.069 411.863 266.257 414.031C265.466 415.99 265.033 418.075 264.978 420.187C266.789 421.324 268.731 422.24 270.762 422.914C270.548 421.939 270.484 420.936 270.573 419.942C270.839 417.27 272.881 417.319 272.35 420.096C272.154 421.171 272.061 422.262 272.07 423.355C275.021 424.263 278.038 424.944 281.093 425.39C282.653 423.369 283.909 421.131 284.821 418.746C282.646 418.2 278.246 418.046 278.344 416.528C278.47 414.43 282.73 416.046 285.227 417.564C285.791 415.754 286.044 413.862 285.975 411.968C284.019 411.42 282.009 411.087 279.981 410.975C275.511 410.59 275.728 408.051 278.973 408.107C281.366 408.156 284.387 409.618 285.821 410.38C284.891 404.295 280.225 400.392 276.525 400.245C270.265 399.993 272.518 407.778 272.518 407.778C272.518 407.778 268.279 404.799 264.278 404.876C260.277 404.953 257.759 411.527 262.04 417.48ZM278.75 406.219C278.617 405.344 281.408 405.134 281.547 406.261C281.715 407.52 278.897 407.114 278.75 406.219ZM283.268 415.353C283.212 414.787 284.415 414.654 284.667 415.402C284.849 415.878 283.268 415.92 283.268 415.353ZM268.244 415.892C269.181 416.025 269.72 419.389 268.097 419.326C266.838 419.277 267.419 415.773 268.223 415.892H268.244Z" fill="#71CC75"/>
<path d="M269.524 419.634C269.678 419.214 269.818 418.788 269.951 418.361C269.832 418.795 269.72 419.228 269.643 419.669C269.642 419.678 269.639 419.687 269.634 419.695C269.629 419.703 269.623 419.709 269.615 419.715C269.607 419.72 269.599 419.723 269.59 419.724C269.581 419.726 269.571 419.725 269.562 419.723C269.554 419.72 269.546 419.715 269.539 419.709C269.532 419.703 269.526 419.696 269.523 419.687C269.519 419.679 269.517 419.67 269.517 419.66C269.518 419.651 269.52 419.642 269.524 419.634Z" fill="#263238"/>
<path d="M271.175 414.192C271.468 413.332 271.797 412.472 272.133 411.625C272.315 411.171 272.504 410.723 272.699 410.275C272.843 409.88 273.031 409.503 273.259 409.149C273.063 408.798 272.893 408.433 272.748 408.058C272.748 408.023 272.783 407.995 272.804 408.023C273.267 408.616 273.677 409.247 274.028 409.912C274.203 410.205 274.364 410.506 274.539 410.807C274.892 410.839 275.242 410.893 275.588 410.968C275.966 411.038 276.337 411.115 276.707 411.199L277.826 411.457C278.197 411.548 278.526 411.667 278.939 411.723C279.022 411.723 278.987 411.877 278.904 411.842C278.523 411.709 278.132 411.606 277.735 411.534C277.372 411.457 277.036 411.394 276.651 411.346C276.267 411.297 275.952 411.248 275.553 411.213L274.728 411.143C274.875 411.408 275.036 411.667 275.175 411.933C275.203 411.973 275.227 412.015 275.245 412.059C275.547 412.052 275.849 412.087 276.141 412.164C276.469 412.22 276.791 412.283 277.113 412.353C277.763 412.5 278.414 412.653 279.057 412.828C280.414 413.206 281.75 413.64 283.086 414.08C283.156 414.08 283.086 414.213 283.037 414.192C281.711 413.744 280.362 413.368 278.994 413.066C278.351 412.926 277.714 412.779 277.071 412.647L276.106 412.437C275.853 412.398 275.603 412.344 275.357 412.276C276.057 413.542 276.693 414.836 277.288 416.158C278.589 419.025 279.68 421.984 280.785 424.929C280.785 425.006 280.701 425.055 280.673 424.978C279.611 422.055 278.375 419.199 276.973 416.424C276.728 415.913 276.469 415.402 276.218 414.899C276.218 415.004 276.169 415.102 276.148 415.206C276.085 415.556 276.022 415.906 275.966 416.256C275.847 416.955 275.728 417.655 275.623 418.354C275.327 419.786 275.159 421.242 275.12 422.705C275.12 422.796 274.987 422.789 275.001 422.705C275.113 422.005 275.113 421.306 275.154 420.606C275.196 419.907 275.252 419.144 275.336 418.417C275.42 417.69 275.511 417.018 275.63 416.319C275.686 415.969 275.749 415.619 275.812 415.276C275.826 415.012 275.892 414.752 276.008 414.514C275.637 413.78 275.308 413.045 274.91 412.311C274.511 411.576 274.21 410.912 273.847 410.254C273.7 409.968 273.532 409.674 273.371 409.38C273.258 409.741 273.12 410.094 272.958 410.436L272.476 411.618C272.119 412.493 271.776 413.374 271.447 414.255C270.979 415.507 270.454 416.787 270.049 418.088C270.426 416.78 270.748 415.479 271.175 414.192Z" fill="#263238"/>
<path d="M269.979 418.389C269.979 418.284 270.042 418.186 270.07 418.081C270.014 418.158 269.979 418.256 269.979 418.389Z" fill="#263238"/>
<path d="M243.008 427.615L243.448 436.931L244.582 460.943H269.349L270.482 436.931L270.923 427.615H243.008Z" fill="#37474F"/>
<path d="M243.008 427.615L243.448 436.931H270.482L270.923 427.615H243.008Z" fill="#263238"/>
<path d="M241.245 431.385H272.685V423.852H241.245V431.385Z" fill="#37474F"/>
<path d="M267.349 460.943H262.998V464.888H267.349V460.943Z" fill="#37474F"/>
<path d="M267.349 460.943H262.998V462.916H267.349V460.943Z" fill="#263238"/>
<path d="M250.926 460.943H246.582V464.888H250.926V460.943Z" fill="#37474F"/>
<path d="M250.926 460.943H246.582V462.916H250.926V460.943Z" fill="#263238"/>
</svg>
